<svg xmlns="http://www.w3.org/2000/svg" xmlns:xlink="http://www.w3.org/1999/xlink" version="1.1" x="0px" y="0px" viewBox="0 0 100 125" style="enable-background:new 0 0 100 100;" xml:space="preserve"><style type="text/css">
	.st0{fill:none;stroke:#000000;stroke-width:2;stroke-linecap:round;stroke-linejoin:round;stroke-miterlimit:10;}
	.st1{fill:none;stroke:#000000;stroke-width:2;stroke-miterlimit:10;}
</style><path d="M22.621,73.463c-1.822,1.023-3.892,1.564-5.984,1.564c-0.553,0-1,0.447-1,1v12.946c0,0.553,0.447,1,1,1h67.226  c0.553,0,1-0.447,1-1V76.027c0-0.553-0.447-1-1-1c-2.312,0-4.567-0.59-6.524-1.706c-6.73-3.842-22.086-15.104-19.321-36.669  c0.104-0.807,0.52-1.552,1.171-2.098c3.166-2.654,4.982-6.54,4.982-10.661c0-3.822-1.518-7.386-4.273-10.035  c-2.755-2.649-6.382-4.029-10.206-3.873c-7.109,0.278-12.969,6.06-13.341,13.161c-0.225,4.303,1.504,8.395,4.744,11.227  c0.623,0.544,1.022,1.276,1.123,2.062C45.046,58.326,29.455,69.622,22.621,73.463z M17.637,87.974V77.027h65.226v10.946H17.637z   M44.201,36.18c-0.164-1.271-0.8-2.446-1.791-3.312c-2.775-2.426-4.256-5.931-4.062-9.616c0.317-6.079,5.335-11.028,11.421-11.268  c3.293-0.117,6.383,1.049,8.742,3.316c2.359,2.269,3.659,5.321,3.659,8.594c0,3.527-1.556,6.854-4.268,9.128  c-1.038,0.871-1.702,2.07-1.87,3.377c-2.911,22.71,13.157,34.562,20.263,38.629H23.914C31.249,70.827,47.144,58.955,44.201,36.18z"/><text x="0" y="115" fill="#000000" font-size="5px" font-weight="bold" font-family="'Helvetica Neue', Helvetica, Arial-Unicode, Arial, Sans-serif">Created by Made by Made</text><text x="0" y="120" fill="#000000" font-size="5px" font-weight="bold" font-family="'Helvetica Neue', Helvetica, Arial-Unicode, Arial, Sans-serif">from the Noun Project</text></svg>