<?xml version="1.0" encoding="utf-8"?>
<!-- Uploaded to: SVG Repo, www.svgrepo.com, Generator: SVG Repo Mixer Tools -->
<svg fill="#000000" width="800px" height="800px" viewBox="-5 0 32 32" version="1.1" xmlns="http://www.w3.org/2000/svg">
<title>pencil</title>
<path d="M18.344 4.781l-3.406 3.063s1.125 0.688 2.156 1.656c1 0.969 1.719 2.063 1.719 2.063l2.906-3.469s-0.031-0.625-1.406-1.969c-1.406-1.344-1.969-1.344-1.969-1.344zM7.25 21.938l-0.156 1.5 10.813-11.25s-0.719-1-1.594-1.844c-0.906-0.875-1.938-1.563-1.938-1.563l-10.813 11.25 1.688-0.094 0.188 1.813zM0 26.719l2.688-5.5 1.5-0.125 0.125 1.719 1.813 0.25-0.188 1.375-5.438 2.75z"></path>
</svg>