<?xml version="1.0" encoding="utf-8"?>

<!DOCTYPE svg PUBLIC "-//W3C//DTD SVG 1.1//EN" "http://www.w3.org/Graphics/SVG/1.1/DTD/svg11.dtd">
<!-- Uploaded to: SVG Repo, www.svgrepo.com, Generator: SVG Repo Mixer Tools -->
<svg height="800px" width="800px" version="1.1" id="_x32_" xmlns="http://www.w3.org/2000/svg" xmlns:xlink="http://www.w3.org/1999/xlink" 
	 viewBox="0 0 512 512"  xml:space="preserve">
<style type="text/css">
	.st0{fill:#000000;}
</style>
<g>
	<path class="st0" d="M389.251,0H122.748C95.72,0.007,73.833,21.898,73.821,48.927v414.146c0.012,27.029,21.899,48.92,48.927,48.928
		h266.503c27.029-0.008,48.916-21.899,48.928-48.928V48.927C438.167,21.898,416.28,0.007,389.251,0z M405.55,463.072
		c-0.008,4.548-1.8,8.523-4.776,11.527c-2.999,2.972-6.97,4.764-11.523,4.772H122.748c-4.553-0.008-8.524-1.8-11.523-4.772
		c-2.975-3.004-4.767-6.978-4.775-11.527V48.927c0.008-4.548,1.8-8.523,4.775-11.527c2.999-2.971,6.97-4.764,11.523-4.771h266.503
		c4.552,0.007,8.524,1.8,11.523,4.771c2.976,3.004,4.768,6.978,4.776,11.527V463.072z"/>
	<path class="st0" d="M291.597,231.428l-0.486,0.008c1.53-4.102,2.358-8.507,2.358-13.12c0-20.711-16.769-37.48-37.481-37.48
		c-20.688,0-37.464,16.769-37.464,37.48c0,4.613,0.844,9.018,2.366,13.12l-0.486-0.008c-20.696,0-37.48,16.769-37.48,37.456
		c0,20.704,16.784,37.481,37.48,37.481c10.459,0,19.908-4.278,26.694-11.184c-2.892,17.597-6.23,35.377-7.233,37.782
		c-1.864,4.493,0.382,5.25,1.505,5.25h29.259c1.123,0,3.37-0.757,1.506-5.25c-1.012-2.406-4.341-20.186-7.225-37.782
		c6.803,6.906,16.234,11.184,26.686,11.184c20.703,0,37.48-16.777,37.48-37.481C329.077,248.197,312.299,231.428,291.597,231.428z"
		/>
</g>
</svg>