<?xml version="1.0" encoding="UTF-8" standalone="no"?>
<!-- Created with Inkscape (http://www.inkscape.org/) -->

<svg
   width="23.102259mm"
   height="23.102259mm"
   viewBox="0 0 23.102259 23.102259"
   version="1.1"
   id="svg1"
   inkscape:version="1.3 (0e150ed6c4, 2023-07-21)"
   sodipodi:docname="w2p-icon.svg"
   xmlns:inkscape="http://www.inkscape.org/namespaces/inkscape"
   xmlns:sodipodi="http://sodipodi.sourceforge.net/DTD/sodipodi-0.dtd"
   xmlns="http://www.w3.org/2000/svg"
   xmlns:svg="http://www.w3.org/2000/svg">
  <sodipodi:namedview
     id="namedview1"
     pagecolor="#ffffff"
     bordercolor="#000000"
     borderopacity="0.25"
     inkscape:showpageshadow="2"
     inkscape:pageopacity="0.0"
     inkscape:pagecheckerboard="0"
     inkscape:deskcolor="#d1d1d1"
     inkscape:document-units="mm"
     inkscape:zoom="0.73228114"
     inkscape:cx="22.532329"
     inkscape:cy="155.67791"
     inkscape:window-width="1920"
     inkscape:window-height="1018"
     inkscape:window-x="1913"
     inkscape:window-y="-6"
     inkscape:window-maximized="1"
     inkscape:current-layer="layer1" />
  <defs
     id="defs1" />
  <g
     inkscape:label="Layer 1"
     inkscape:groupmode="layer"
     id="layer1"
     transform="translate(-98.882619,-107.42083)">
    <g
       id="g25"
       transform="matrix(0.82908519,0,0,0.82908519,151.66123,62.357083)">
      <rect
         style="fill:#5200f3;fill-opacity:1;stroke:none;stroke-width:0.526576;stroke-opacity:1"
         id="rect19"
         width="27.864759"
         height="27.864759"
         x="-63.658852"
         y="54.35358"
         ry="1.6179539" />
      <path
         fill="#000000"
         d="m -55.654916,56.56531 c -0.609883,0 -1.048501,0.322718 -1.301828,0.72802 -0.226561,0.362473 -0.320822,0.782908 -0.339209,1.151142 -0.691381,0.341874 -1.457282,0.686548 -2.07394,1.038925 -0.323464,0.184839 -0.605479,0.370764 -0.817763,0.570579 -0.212284,0.19977 -0.368911,0.42475 -0.368911,0.690162 0,0.112941 0.05512,0.204988 0.117233,0.272527 0.06221,0.06753 0.136749,0.119989 0.221636,0.16896 0.16975,0.09795 0.383773,0.179576 0.619188,0.250188 0.349735,0.104945 0.741416,0.182965 1.081978,0.216328 -0.338733,0.583679 -0.789527,1.11979 -1.184686,1.633469 -0.456666,0.593665 -0.855349,1.163001 -0.855349,1.795473 0,0.09036 -9.47e-4,0.160896 0.0071,0.231756 0.0081,0.07086 0.02838,0.159315 0.09961,0.229405 0.07126,0.07011 0.158501,0.08895 0.229564,0.09668 0.07106,0.0078 0.142644,0.0068 0.234466,0.0068 h 2.519539 c 0.182897,0 0.316823,0.01111 0.454589,-0.07748 0.137788,-0.08854 0.188024,-0.209506 0.286193,-0.390213 l 0.0019,-0.0036 0.0018,-0.0038 c 0,0 0.219626,-0.44657 0.481672,-0.889706 0.131012,-0.221546 0.27325,-0.442188 0.396966,-0.598544 0.06189,-0.07815 0.119808,-0.140139 0.161506,-0.175149 0.01274,-0.01067 0.01852,-0.01265 0.02674,-0.01717 0.0083,0.0046 0.014,0.0065 0.02674,0.01717 0.0417,0.03502 0.09962,0.09699 0.161508,0.175149 0.123716,0.156356 0.265953,0.376998 0.396965,0.598544 0.262024,0.443136 0.481671,0.889683 0.481671,0.889683 l 0.0018,0.0037 0.0019,0.0036 c 0.09817,0.180706 0.147953,0.300943 0.284837,0.389739 0.13684,0.08878 0.270471,0.07793 0.450794,0.07793 h 2.53063 c 0.09036,0 0.160829,9.47e-4 0.231394,-0.0068 0.07055,-0.0079 0.158072,-0.02733 0.228593,-0.09785 0.07048,-0.07052 0.08999,-0.158049 0.09781,-0.228593 0.0079,-0.07052 0.0069,-0.141041 0.0069,-0.231394 0,-0.632471 -0.398682,-1.201807 -0.855349,-1.795495 -0.395136,-0.513657 -0.845931,-1.049767 -1.184686,-1.633469 0.340563,-0.03338 0.732243,-0.11136 1.081977,-0.216305 0.235415,-0.07059 0.449439,-0.152247 0.619189,-0.250165 0.0849,-0.04897 0.159428,-0.101419 0.221591,-0.168961 0.06218,-0.06753 0.117278,-0.159586 0.117278,-0.272527 0,-0.265412 -0.156627,-0.490391 -0.368911,-0.690162 -0.212285,-0.199815 -0.494299,-0.385739 -0.817763,-0.57058 -0.616659,-0.352376 -1.382559,-0.697073 -2.073941,-1.038923 -0.01838,-0.368189 -0.11267,-0.788669 -0.339208,-1.151099 -0.253326,-0.405323 -0.691946,-0.728018 -1.301829,-0.728018 z"
         id="path12"
         style="fill:#ffffff;fill-opacity:1;stroke:none;stroke-width:0.757868;stroke-dasharray:none;stroke-opacity:1" />
      <g
         style="fill:#ffffff;fill-opacity:1"
         id="g13"
         transform="matrix(0.38243571,0,0,0.38243571,-61.763993,69.354237)">
        <path
           d="M 27.299,2.246 H 4.649 c -1.327,0 -2.402,1.076 -2.402,2.402 v 22.65 c 0,1.327 1.076,2.402 2.402,2.402 h 22.65 c 1.327,0 2.402,-1.076 2.402,-2.402 V 4.648 c 0,-1.327 -1.076,-2.402 -2.402,-2.402 z M 7.613,27.455 c -1.723,0 -3.12,-1.397 -3.12,-3.12 0,-1.723 1.397,-3.12 3.12,-3.12 1.723,0 3.12,1.397 3.12,3.12 0,1.723 -1.397,3.12 -3.12,3.12 z M 24.335,10.732 c -1.723,0 -3.12,-1.397 -3.12,-3.12 0,-1.723 1.397,-3.12 3.12,-3.12 1.723,0 3.12,1.397 3.12,3.12 0,1.723 -1.397,3.12 -3.12,3.12 z"
           id="path13"
           style="fill:#ffffff;fill-opacity:1" />
      </g>
      <g
         id="g15"
         transform="matrix(0.02070084,0,0,0.02070084,-47.707387,70.163468)"
         style="fill:#ffffff;fill-opacity:1;stroke:none">
        <path
           class="st0"
           d="m 115.177,431.387 h 281.647 c 0,0 19.259,-3.795 19.259,-22.736 0,-28.422 -26.138,-38.79 -38.519,-54.953 C 325.289,288.095 329.096,128.356 329.096,128.356 H 182.904 c 0,0 3.809,159.739 -48.492,225.342 -12.358,16.164 -38.495,26.532 -38.495,54.953 0,18.941 19.26,22.736 19.26,22.736 z"
           id="path14"
           style="fill:#ffffff;fill-opacity:1;stroke:none;stroke-width:2;stroke-linecap:round;stroke-linejoin:round;stroke-miterlimit:10" />
        <polygon
           class="st0"
           points="230.317,0 230.317,43.359 191.822,43.359 191.822,0 137.261,0 137.261,79.863 182.904,108.397 329.096,108.397 374.714,79.863 374.714,0 320.178,0 320.178,43.359 281.659,43.359 281.659,0 "
           id="polygon14"
           style="fill:#ffffff;fill-opacity:1;stroke:none;stroke-width:2;stroke-linecap:round;stroke-linejoin:round;stroke-miterlimit:10" />
        <polygon
           class="st0"
           points="396.824,451.348 115.177,451.348 99.479,477.78 99.479,512 412.521,512 412.521,477.78 "
           id="polygon15"
           style="fill:#ffffff;fill-opacity:1;stroke:none;stroke-width:2;stroke-linecap:round;stroke-linejoin:round;stroke-miterlimit:10" />
      </g>
      <g
         id="g19"
         data-name="Layer 2"
         transform="matrix(0.30240385,0,0,0.30240385,-49.665664,53.848155)"
         style="fill:#0034f3;fill-opacity:1;stroke:#f51b1b;stroke-width:0.998665;stroke-dasharray:none;stroke-opacity:1">
        <g
           id="g18"
           style="fill:#f36800;fill-opacity:1;stroke:none;stroke-width:0.998665;stroke-dasharray:none;stroke-opacity:1">
          <g
             id="g17"
             style="fill:#f36800;fill-opacity:1;stroke:none;stroke-width:0.998665;stroke-dasharray:none;stroke-opacity:1">
            <path
               d="m 24.3,6 a 11.2,11.2 0 0 0 -8.3,3.3 11,11 0 0 0 -3.5,8.2 2.5,2.5 0 0 0 5,0 6.5,6.5 0 0 1 2,-4.7 6.2,6.2 0 0 1 4.7,-1.8 6.5,6.5 0 0 1 1,12.9 4.4,4.4 0 0 0 -3.7,4.4 v 3.2 a 2.5,2.5 0 0 0 5,0 V 28.7 A 11.6,11.6 0 0 0 35.5,17.2 11.7,11.7 0 0 0 24.3,6 Z"
               id="path16"
               style="fill:#f36800;fill-opacity:1;stroke:none;stroke-width:0.998665;stroke-dasharray:none;stroke-opacity:1" />
            <circle
               cx="24"
               cy="39.5"
               r="2.5"
               id="circle16"
               style="fill:#f36800;fill-opacity:1;stroke:none;stroke-width:0.998665;stroke-dasharray:none;stroke-opacity:1" />
          </g>
        </g>
      </g>
    </g>
  </g>
</svg>
